<svg xmlns="http://www.w3.org/2000/svg" viewBox="0 0 137.65 137.65"><defs><style>.cls-1,.cls-2,.cls-5,.cls-6{fill:none;stroke-linejoin:round;stroke-width:4px;}.cls-1,.cls-2{stroke:#f94972;}.cls-2,.cls-6{stroke-linecap:round;}.cls-3{fill:#f94972;}.cls-4{fill:#ff769a;}.cls-5,.cls-6{stroke:#000;}</style></defs><title>root</title><g id="Layer_2" data-name="Layer 2"><g id="OBJECTS"><path class="cls-1" d="M63,21.38s-.23-11.95-11.33-17c-17.47-8-25.27,7.29-44.9,2.37,4.92,19.63-10.36,27.43-2.37,44.9,5.07,11.1,17,11.33,17,11.33"/><path class="cls-1" d="M21.38,74.68S9.43,74.92,4.36,86c-8,17.47,7.29,25.28,2.37,44.91,19.63-4.93,27.43,10.36,44.9,2.37,11.1-5.08,11.33-17,11.33-17"/><path class="cls-1" d="M74.68,116.26s.24,12,11.33,17c17.47,8,25.28-7.3,44.91-2.37C126,111.29,141.28,103.48,133.29,86c-5.08-11.09-17-11.33-17-11.33"/><path class="cls-1" d="M116.26,63s12-.23,17-11.33c8-17.47-7.3-25.27-2.37-44.9C111.29,11.65,103.48-3.63,86,4.36c-11.09,5.07-11.33,17-11.33,17"/><circle class="cls-2" cx="68.82" cy="68.82" r="47.85"/><rect class="cls-2" x="34.99" y="34.99" width="67.67" height="67.67"/><polygon class="cls-2" points="45.97 51.1 68.82 87.57 91.68 51.1 45.97 51.1"/><polygon class="cls-3" points="86.37 55.05 51.27 55.05 68.82 83.05 86.37 55.05"/><polygon class="cls-4" points="86.37 55.05 81.25 63.22 56.4 63.22 51.28 55.05 86.37 55.05"/><path class="cls-4" d="M42.16,95.48H95.48V42.16H42.16Zm8-41a.41.41,0,0,1,.36-.21H87.11a.42.42,0,0,1,.36.21.4.4,0,0,1,0,.41L69.17,84a.45.45,0,0,1-.35.19.41.41,0,0,1-.34-.19L50.19,54.86A.4.4,0,0,1,50.18,54.45Z"/><path class="cls-3" d="M96.3,42.78V94.86A37.89,37.89,0,0,0,96.3,42.78Z"/><path class="cls-4" d="M41.45,41.48l0,0a38.45,38.45,0,0,1,22.21-11c-.15-1.78-1.25-9.43-8.8-12.88-7.16-3.27-12.3-1.54-17.74.29-5,1.69-10.2,3.44-17.46,1.79,1.65,7.26-.1,12.44-1.79,17.46-1.83,5.44-3.56,10.58-.29,17.74,3.45,7.53,11,8.64,12.86,8.8A38.44,38.44,0,0,1,41.45,41.48Z"/><path class="cls-3" d="M94.86,41.35a37.85,37.85,0,0,0-52.08,0Z"/><path class="cls-3" d="M96.19,41.48a38.45,38.45,0,0,1,11,22.22c1.79-.15,9.43-1.25,12.88-8.8,3.28-7.16,1.55-12.3-.29-17.74C118,32.14,116.3,27,118,19.7c-7.26,1.65-12.45-.1-17.46-1.79-5.44-1.83-10.58-3.56-17.74-.29-7.57,3.46-8.66,11.1-8.81,12.88a38.51,38.51,0,0,1,22.22,11Z"/><path class="cls-4" d="M107.14,73.94a38.42,38.42,0,0,1-11,22.22l0,0a38.49,38.49,0,0,1-22.22,11c.16,1.78,1.26,9.42,8.81,12.87,7.16,3.28,12.3,1.55,17.74-.29,5-1.69,10.2-3.43,17.46-1.78-1.65-7.27.09-12.45,1.78-17.46,1.84-5.44,3.57-10.58.29-17.74C116.57,75.18,108.93,74.09,107.14,73.94Z"/><path class="cls-3" d="M41.35,42.78a37.81,37.81,0,0,0,0,52.09Z"/><path class="cls-3" d="M42.78,96.3a37.89,37.89,0,0,0,52.08,0Z"/><path class="cls-3" d="M41.45,96.16A38.39,38.39,0,0,1,30.48,74c-1.82.16-9.42,1.28-12.86,8.8-3.27,7.16-1.54,12.3.29,17.74,1.69,5,3.44,10.19,1.79,17.46,7.26-1.65,12.44.09,17.46,1.78,5.44,1.84,10.58,3.57,17.74.29,7.56-3.45,8.65-11.09,8.8-12.87a38.52,38.52,0,0,1-22.22-11Z"/><path class="cls-5" d="M64.14,30.87S64,21.31,55.07,17.25c-14-6.39-20.22,5.84-35.92,1.9,3.94,15.7-8.29,21.94-1.9,35.92,4.06,8.88,13.62,9.07,13.62,9.07"/><path class="cls-5" d="M30.87,73.51s-9.56.19-13.62,9.07c-6.39,14,5.84,20.21,1.9,35.92,15.7-3.94,21.94,8.29,35.92,1.9,8.88-4.06,9.07-13.63,9.07-13.63"/><path class="cls-5" d="M73.51,106.77s.19,9.57,9.07,13.63c14,6.39,20.22-5.84,35.92-1.9-3.94-15.71,8.29-22,1.9-35.92-4.06-8.88-13.63-9.07-13.63-9.07"/><path class="cls-5" d="M106.77,64.14s9.57-.19,13.63-9.07c6.39-14-5.84-20.22-1.9-35.92-15.7,3.94-22-8.29-35.92-1.9-8.88,4.06-9.07,13.62-9.07,13.62"/><circle class="cls-6" cx="68.82" cy="68.82" r="38.28"/><rect class="cls-6" x="41.75" y="41.75" width="54.14" height="54.14"/><polygon class="cls-6" points="50.54 54.64 68.82 83.82 87.11 54.64 50.54 54.64"/></g></g></svg>