<svg xmlns="http://www.w3.org/2000/svg" viewBox="0 0 149.34 156.82"><defs><style>.cls-1,.cls-4{fill:none;stroke-linecap:round;stroke-linejoin:round;stroke-width:4px;}.cls-1{stroke:#ffdc46;}.cls-2{fill:#ffe471;}.cls-3{fill:#ffdc46;}.cls-4{stroke:#000;}</style></defs><title>solar-plexus</title><g id="Layer_2" data-name="Layer 2"><g id="OBJECTS"><path class="cls-1" d="M59.81,32.67s-4-6.26-1.86-12.57C61.31,10.17,69.47,11.57,74.67,2c5.2,9.57,13.36,8.17,16.71,18.1,2.13,6.31-1.85,12.57-1.85,12.57"/><path class="cls-1" d="M35.77,50.14s-6.91-2.73-8.9-9.08c-3.12-10,4.31-13.66,2.89-24.47,9.83,4.69,15.61-1.24,24.16,4.82,5.43,3.85,5.88,11.26,5.88,11.26"/><path class="cls-1" d="M26.58,78.4s-7.19,1.86-12.53-2.11C5.64,70,9.5,62.7,2,54.8c10.71-2,11.9-10.19,22.38-10.31,6.66-.07,11.38,5.66,11.38,5.66"/><path class="cls-1" d="M35.76,106.67S31,112.4,24.38,112.32C13.9,112.2,12.71,104,2,102c7.5-7.9,3.64-15.23,12.05-21.49,5.34-4,12.53-2.12,12.53-2.12"/><path class="cls-1" d="M59.8,124.14s-.45,7.42-5.88,11.27c-8.55,6.06-14.33.12-24.16,4.81,1.42-10.8-6-14.46-2.89-24.46,2-6.36,8.9-9.08,8.9-9.08"/><path class="cls-1" d="M89.53,124.15s4,6.26,1.85,12.57c-3.35,9.93-11.51,8.52-16.71,18.1-5.2-9.58-13.36-8.17-16.72-18.1-2.13-6.31,1.86-12.57,1.86-12.57"/><path class="cls-1" d="M113.57,106.68s6.91,2.72,8.89,9.08c3.13,10-4.3,13.66-2.88,24.46-9.83-4.69-15.61,1.25-24.16-4.81-5.43-3.85-5.89-11.27-5.89-11.27"/><path class="cls-1" d="M122.76,78.41s7.19-1.85,12.53,2.12c8.41,6.26,4.55,13.59,12.05,21.49-10.71,2-11.9,10.18-22.38,10.3-6.66.08-11.38-5.65-11.38-5.65"/><path class="cls-1" d="M113.58,50.15s4.72-5.73,11.38-5.66c10.48.12,11.67,8.32,22.38,10.31-7.5,7.9-3.64,15.23-12.05,21.49-5.34,4-12.53,2.11-12.53,2.11"/><path class="cls-1" d="M89.53,32.67s.46-7.41,5.89-11.26c8.55-6.06,14.33-.13,24.16-4.82-1.42,10.81,6,14.47,2.88,24.47-2,6.35-8.89,9.08-8.89,9.08"/><circle class="cls-1" cx="74.67" cy="78.41" r="48.08"/><polygon class="cls-1" points="116.65 54.97 32.69 54.97 74.67 126.49 116.65 54.97"/><path class="cls-2" d="M112.68,78.41a37.71,37.71,0,0,0-4.45-17.82L75.47,116.4A38,38,0,0,0,112.68,78.41Z"/><path class="cls-3" d="M105.81,55.11a15,15,0,0,1,4.76-3.36,9.5,9.5,0,0,0,1.91-3.35c1.27-4.09.26-6.84-.82-9.75a19,19,0,0,1-1.59-9,19,19,0,0,1-9,1.25c-3.1-.13-6-.24-9.52,2.24A9.43,9.43,0,0,0,88.94,36a14.88,14.88,0,0,1-1.73,5.58A39.06,39.06,0,0,1,105.81,55.11Z"/><path class="cls-2" d="M63.17,41.23a39.09,39.09,0,0,1,23,0,14.88,14.88,0,0,1,1.88-5.51,9.57,9.57,0,0,0-.44-3.81c-1.37-4.06-3.8-5.69-6.38-7.41a19,19,0,0,1-6.56-6.31,19.06,19.06,0,0,1-6.56,6.31c-2.58,1.72-5,3.35-6.39,7.41a9.33,9.33,0,0,0-.43,3.8A15.16,15.16,0,0,1,63.17,41.23Z"/><path class="cls-2" d="M74.67,40.4A38,38,0,0,0,41.88,59.21h65.58A38,38,0,0,0,74.67,40.4Z"/><polygon class="cls-3" points="107.47 60.11 41.87 60.11 74.67 115.98 107.47 60.11"/><polygon class="cls-2" points="107.47 60.11 102.19 69.11 47.15 69.11 41.87 60.11 107.47 60.11"/><path class="cls-2" d="M36.66,78.41a38,38,0,0,0,37.21,38L41.11,60.59A37.71,37.71,0,0,0,36.66,78.41Z"/><path class="cls-2" d="M106.45,56a37.18,37.18,0,0,1,2.14,3.39l.06.06a.64.64,0,0,1,0,.07,38.75,38.75,0,0,1,4.9,18.35,14.94,14.94,0,0,1,5.84.08,9.44,9.44,0,0,0,3.49-1.59C126.33,73.79,127.12,71,128,68a19.16,19.16,0,0,1,4-8.19,19,19,0,0,1-8-4.29c-2.43-1.92-4.73-3.73-9-3.78h-.1a9.56,9.56,0,0,0-3.66.76A14.86,14.86,0,0,1,106.45,56Z"/><path class="cls-3" d="M43.52,55.11A39.14,39.14,0,0,1,62.13,41.58,14.88,14.88,0,0,1,60.4,36a9.47,9.47,0,0,0-2.59-2.83c-3.49-2.48-6.42-2.36-9.52-2.24a19,19,0,0,1-9-1.25,19.09,19.09,0,0,1-1.59,9c-1.08,2.91-2.09,5.66-.82,9.75a9.52,9.52,0,0,0,1.89,3.33A15,15,0,0,1,43.52,55.11Z"/><path class="cls-2" d="M105.81,101.71a39,39,0,0,1-18.6,13.52,15.21,15.21,0,0,1,1.73,5.58,9.34,9.34,0,0,0,2.59,2.83c3.49,2.48,6.42,2.36,9.52,2.24a18.92,18.92,0,0,1,9,1.25,18.94,18.94,0,0,1,1.59-9c1.08-2.91,2.09-5.66.82-9.75a9.57,9.57,0,0,0-1.89-3.34A15.06,15.06,0,0,1,105.81,101.71Z"/><path class="cls-2" d="M35.77,77.86A38.57,38.57,0,0,1,40.68,59.5s0,0,0-.06l.05,0c.66-1.17,1.38-2.3,2.15-3.4a14.86,14.86,0,0,1-4.67-3.48,9.63,9.63,0,0,0-3.78-.78c-4.28.05-6.58,1.86-9,3.78a19,19,0,0,1-8,4.29,19,19,0,0,1,4,8.19c.84,3,1.64,5.8,5.07,8.36a9.44,9.44,0,0,0,3.49,1.59A14.94,14.94,0,0,1,35.77,77.86Z"/><path class="cls-3" d="M122.9,80.47a9.63,9.63,0,0,0-3.49-1.6,13.62,13.62,0,0,1-3,.34,15.28,15.28,0,0,1-2.79-.25,38.76,38.76,0,0,1-7.12,21.86,15.1,15.1,0,0,1,4.69,3.51,9.6,9.6,0,0,0,3.66.76h.1c4.28,0,6.58-1.86,9-3.79a19.11,19.11,0,0,1,8-4.28,19.21,19.21,0,0,1-4-8.19C127.12,85.84,126.33,83,122.9,80.47Z"/><path class="cls-3" d="M86.17,115.58a38.87,38.87,0,0,1-23,0,15.16,15.16,0,0,1-1.88,5.52,9.58,9.58,0,0,0,.43,3.81c1.37,4.06,3.81,5.68,6.39,7.41a19,19,0,0,1,6.56,6.31,18.88,18.88,0,0,1,6.56-6.31c2.58-1.73,5-3.35,6.38-7.41a9.59,9.59,0,0,0,.44-3.81A14.91,14.91,0,0,1,86.17,115.58Z"/><path class="cls-3" d="M42.89,100.82A38.61,38.61,0,0,1,35.77,79a15.28,15.28,0,0,1-2.79.25,14.18,14.18,0,0,1-3-.33,9.44,9.44,0,0,0-3.49,1.59C23,83,22.21,85.84,21.37,88.83a19.06,19.06,0,0,1-4,8.19,19.11,19.11,0,0,1,8,4.28c2.43,1.93,4.73,3.74,9,3.79h.1a9.64,9.64,0,0,0,3.66-.76A15.1,15.1,0,0,1,42.89,100.82Z"/><path class="cls-2" d="M43.53,101.71a15.06,15.06,0,0,1-4.78,3.37,9.57,9.57,0,0,0-1.89,3.34c-1.27,4.09-.26,6.84.82,9.75a19.06,19.06,0,0,1,1.59,9,18.92,18.92,0,0,1,9-1.25c3.1.12,6,.24,9.52-2.24a9.47,9.47,0,0,0,2.59-2.83,15,15,0,0,1,1.73-5.58A39,39,0,0,1,43.53,101.71Z"/><path class="cls-4" d="M62.78,41.82s-3.19-5-1.48-10.06c2.68-7.94,9.21-6.82,13.37-14.48C78.83,24.94,85.36,23.82,88,31.76c1.7,5.05-1.49,10.06-1.49,10.06"/><path class="cls-4" d="M43.55,55.79S38,53.61,36.43,48.53c-2.5-8,3.45-10.93,2.31-19.57,7.87,3.75,12.49-1,19.33,3.85,4.34,3.08,4.71,9,4.71,9"/><path class="cls-4" d="M36.2,78.41s-5.76,1.48-10-1.7c-6.72-5-3.64-10.87-9.64-17.19,8.57-1.59,9.52-8.15,17.91-8.24,5.32-.06,9.1,4.52,9.1,4.52"/><path class="cls-4" d="M43.54,101s-3.78,4.58-9.1,4.52c-8.39-.1-9.34-6.65-17.91-8.24,6-6.33,2.92-12.19,9.64-17.19,4.27-3.18,10-1.7,10-1.7"/><path class="cls-4" d="M62.78,115s-.37,5.93-4.71,9c-6.84,4.85-11.46.1-19.33,3.85,1.14-8.64-4.81-11.57-2.31-19.57C38,103.2,43.55,101,43.55,101"/><path class="cls-4" d="M86.55,115s3.19,5,1.49,10.06c-2.68,7.94-9.21,6.82-13.37,14.48C70.51,131.88,64,133,61.3,125.06,59.59,120,62.78,115,62.78,115"/><path class="cls-4" d="M105.79,101s5.53,2.18,7.12,7.27c2.49,8-3.45,10.93-2.31,19.57-7.87-3.75-12.49,1-19.33-3.85-4.34-3.08-4.71-9-4.71-9"/><path class="cls-4" d="M113.14,78.41s5.75-1.48,10,1.7c6.72,5,3.63,10.86,9.63,17.19-8.57,1.59-9.52,8.14-17.9,8.24-5.32.06-9.11-4.52-9.11-4.52"/><path class="cls-4" d="M105.79,55.8s3.79-4.58,9.11-4.52c8.38.09,9.33,6.65,17.9,8.24-6,6.32-2.91,12.19-9.63,17.19-4.28,3.18-10,1.7-10,1.7"/><path class="cls-4" d="M86.56,41.82s.37-5.93,4.71-9c6.84-4.85,11.46-.1,19.33-3.85-1.14,8.64,4.8,11.57,2.31,19.57-1.59,5.08-7.12,7.26-7.12,7.26"/><circle class="cls-4" cx="74.67" cy="78.41" r="38.46"/><polygon class="cls-4" points="108.26 59.66 41.09 59.66 74.67 116.87 108.26 59.66"/></g></g></svg>