<svg xmlns="http://www.w3.org/2000/svg" viewBox="0 0 157.1 112.22"><defs><style>.cls-1,.cls-4{fill:none;stroke-linecap:round;stroke-linejoin:round;stroke-width:4px;}.cls-1{stroke:#ab7beb;}.cls-2{fill:#ab7beb;}.cls-3{fill:#c3a4ff;}.cls-4{stroke:#000;}</style></defs><title>third-eye</title><g id="Layer_2" data-name="Layer 2"><g id="OBJECTS"><circle class="cls-1" cx="78.55" cy="56.11" r="42.1"/><path class="cls-1" d="M78.55,98.21s-10.36,17-29.77,10.56C18.22,98.65,31.47,71.8,2,56.11,31.47,40.42,18.22,13.57,48.78,3.45,68.2-3,78.55,14,78.55,14"/><path class="cls-1" d="M78.55,98.21s10.35,17,29.77,10.56c30.56-10.12,17.3-37,46.78-52.66-29.48-15.69-16.22-42.54-46.78-52.66C88.9-3,78.55,14,78.55,14"/><polygon class="cls-1" points="42.52 34.84 78.54 98.21 114.89 34.84 42.52 34.84"/><polygon class="cls-2" points="106.84 39.55 50.5 39.55 78.55 88.88 106.84 39.55"/><polygon class="cls-3" points="106.84 39.55 101.68 48.55 55.62 48.55 50.5 39.55 106.84 39.55"/><path class="cls-3" d="M45.32,56.11A33.26,33.26,0,0,0,77.76,89.32L49.61,39.8A33.11,33.11,0,0,0,45.32,56.11Z"/><path class="cls-3" d="M50.29,38.65H106.8a33.2,33.2,0,0,0-56.51,0Z"/><path class="cls-3" d="M111.78,56.11A33.05,33.05,0,0,0,107.61,40L79.33,89.32A33.27,33.27,0,0,0,111.78,56.11Z"/><path class="cls-2" d="M54.88,14.41c-12.46,4.13-15.69,11.82-19.12,20C32.53,42.08,29.19,50,18.25,56.11c10.94,6.08,14.28,14,17.51,21.73,3.43,8.15,6.66,15.84,19.11,20,13.22,4.37,21-4.94,22.85-7.59a34.12,34.12,0,0,1,0-68.22C75.84,19.35,68.1,10,54.88,14.41Z"/><path class="cls-2" d="M102.22,97.81c12.46-4.13,15.69-11.82,19.12-20,3.23-7.7,6.57-15.65,17.51-21.73-10.94-6.08-14.28-14-17.51-21.73-3.43-8.15-6.66-15.84-19.12-20-13-4.32-20.92,5-22.83,7.59A34.16,34.16,0,0,1,108,38.82l.05,0s0,.05,0,.08A34.09,34.09,0,0,1,79.38,90.22C81.26,92.87,89,102.18,102.22,97.81Z"/><circle class="cls-4" cx="78.55" cy="56.11" r="33.68"/><path class="cls-4" d="M78.55,89.79s-8.28,13.59-23.82,8.44C30.29,90.14,40.89,68.66,17.31,56.11c23.58-12.55,13-34,37.42-42.13,15.54-5.14,23.82,8.45,23.82,8.45"/><path class="cls-4" d="M78.55,89.79s8.28,13.59,23.81,8.44c24.45-8.09,13.85-29.57,37.43-42.12-23.58-12.55-13-34-37.43-42.13-15.53-5.14-23.81,8.45-23.81,8.45"/><polygon class="cls-4" points="49.73 39.1 78.54 89.79 107.62 39.1 49.73 39.1"/></g></g></svg>