<svg xmlns="http://www.w3.org/2000/svg" viewBox="0 0 167.9 153.77"><defs><style>.cls-1,.cls-4{fill:none;stroke-linecap:round;stroke-linejoin:round;stroke-width:4px;}.cls-1{stroke:#ff5c5c;}.cls-2{fill:#ff5c5c;}.cls-3{fill:#ff8080;}.cls-4{stroke:#000;}</style></defs><title>crown</title><g id="Layer_2" data-name="Layer 2"><g id="OBJECTS"><path class="cls-1" d="M52.17,56.83s-6.88-1.82-7.53-8c-1-9.78,7.41-14.71,8.47-25.32,9.71,4.39,18.2-.44,26.16,5.33,5.06,3.66,3.2,10.53,3.2,10.53"/><path class="cls-1" d="M50.69,94.38s-5,5.05-10.73,2.5c-9-4-9-13.77-17.7-20,8.67-6.22,8.72-16,17.7-20,5.71-2.55,10.73,2.5,10.73,2.5"/><path class="cls-1" d="M82.47,114.44s1.86,6.87-3.2,10.54c-8,5.77-16.45.93-26.16,5.33-1.06-10.62-9.49-15.55-8.47-25.33.65-6.21,7.53-8,7.53-8"/><path class="cls-1" d="M115.73,96.94s6.88,1.83,7.53,8c1,9.78-7.41,14.71-8.47,25.33-9.72-4.4-18.2.44-26.17-5.33-5.06-3.67-3.19-10.54-3.19-10.54"/><path class="cls-1" d="M117.21,59.39s5-5,10.72-2.5c9,4,9,13.78,17.7,20-8.66,6.22-8.72,16-17.7,20-5.7,2.55-10.72-2.5-10.72-2.5"/><path class="cls-1" d="M85.43,39.33s-1.87-6.87,3.19-10.53c8-5.77,16.45-.94,26.17-5.33,1.06,10.61,9.48,15.54,8.47,25.32-.65,6.22-7.53,8-7.53,8"/><circle class="cls-1" cx="83.95" cy="76.89" r="37.55"/><path class="cls-1" d="M72.35,26s-3.12-4.89-1.46-9.81C73.51,8.38,79.89,9.48,84,2,88,9.48,94.38,8.38,97,16.14,98.67,21.06,95.55,26,95.55,26"/><path class="cls-1" d="M34,61.47s-5.8.25-9.23-3.65c-5.41-6.15-1.27-11.12-5.72-18.38,8.51.23,10.75-5.84,18.77-4.23,5.1,1,7.78,6.16,7.78,6.16"/><path class="cls-1" d="M45.64,112.4s-2.68,5.14-7.78,6.17c-8,1.61-10.26-4.46-18.77-4.24,4.45-7.26.31-12.23,5.72-18.37C28.24,92.05,34,92.3,34,92.3"/><path class="cls-1" d="M95.55,127.82s3.12,4.89,1.45,9.82c-2.62,7.75-9,6.65-13,14.13-4.06-7.48-10.44-6.38-13.06-14.13-1.66-4.93,1.46-9.82,1.46-9.82"/><path class="cls-1" d="M133.86,92.3s5.79-.25,9.23,3.66c5.4,6.14,1.27,11.11,5.71,18.37-8.5-.22-10.74,5.85-18.77,4.24-5.09-1-7.77-6.17-7.77-6.17"/><path class="cls-1" d="M122.26,41.37s2.68-5.14,7.77-6.16c8-1.61,10.27,4.46,18.77,4.23-4.44,7.26-.31,12.23-5.71,18.38-3.44,3.9-9.23,3.65-9.23,3.65"/><path class="cls-1" d="M31.7,35.55c1-10.49,10-17.06,11.27-29.63,11.3,5.1,21.34.82,30.76,4.81"/><path class="cls-1" d="M22,101.44c-8.56-6.1-9.74-17.2-20-24.55,10.25-7.36,11.43-18.46,20-24.56"/><path class="cls-1" d="M74.24,142.82c-9.57,4.36-19.77-.16-31.27,5-1.25-12.6-10.33-19.18-11.28-29.71"/><path class="cls-1" d="M136.19,118.28c-1,10.46-10,17-11.27,29.58-11.49-5.2-21.69-.68-31.26-5"/><path class="cls-1" d="M145.91,52.33c8.56,6.1,9.74,17.2,20,24.56-10.25,7.36-11.43,18.45-20,24.55"/><path class="cls-1" d="M93.66,11c9.57-4.36,19.77.16,31.26-5,1.23,12.33,10,18.89,11.21,29"/><path class="cls-2" d="M47.17,43.1a10.09,10.09,0,0,1,6.07,4.41,42.45,42.45,0,0,1,2-3.84c1.58-2.81,3.21-5.71,3.6-9.56a.42.42,0,0,1,.22-.35.46.46,0,0,1,.41,0c3.53,1.59,6.86,1.63,10.08,1.67a40.87,40.87,0,0,1,4.32.2,10.11,10.11,0,0,1-.78-7.47,9.82,9.82,0,0,1,2.29-3.85c-3.38-1.37-6.88-1.42-10.58-1.46-4.22,0-8.57-.1-13.24-2.06-.64,5-2.77,8.82-4.83,12.5-1.82,3.22-3.52,6.28-4,9.89A9.91,9.91,0,0,1,47.17,43.1Z"/><path class="cls-2" d="M109.54,60.32c1.09-.37,5-2,5.41-6s-1.28-7.06-3.07-10.25c-1.54-2.74-3.13-5.57-3.63-9.31-3.49,1.44-6.73,1.47-9.88,1.51-3.66,0-7.12.08-10.42,2.47s-2.66,6.57-2.44,7.67A30.53,30.53,0,0,1,109.54,60.32Z"/><path class="cls-3" d="M119,92.47c3.72-1.66,5.48-4.63,7.35-7.79,1.6-2.7,3.26-5.49,6.24-7.79-3-2.3-4.64-5.1-6.24-7.8-1.87-3.15-3.63-6.13-7.35-7.79s-7,1-7.86,1.71a30.45,30.45,0,0,1,0,27.74C111.93,91.49,115.29,94.11,119,92.47Z"/><path class="cls-3" d="M94,35.61a40.87,40.87,0,0,1,4.32-.2c3.22,0,6.55-.08,10.08-1.67a.46.46,0,0,1,.41,0,.45.45,0,0,1,.22.35c.38,3.85,2,6.75,3.59,9.56a40,40,0,0,1,2,3.84,10.11,10.11,0,0,1,6.08-4.41,9.81,9.81,0,0,1,4.48.06c-.51-3.61-2.22-6.67-4-9.89-2.06-3.68-4.2-7.48-4.83-12.5-4.67,2-9,2-13.24,2.06-3.7,0-7.2.1-10.58,1.47a9.77,9.77,0,0,1,2.29,3.84A10.16,10.16,0,0,1,94,35.61Z"/><path class="cls-3" d="M75,35.76a13,13,0,0,1,5.5,2.29c3.48,2.52,3.1,6.85,2.84,8.36h1.27c-.26-1.52-.63-5.84,2.84-8.36a12.94,12.94,0,0,1,5.51-2.29c.39-.68,2.15-4,1-7.33-1.06-3.14-2.87-4.34-5-5.73A15,15,0,0,1,84,17.87a15.08,15.08,0,0,1-5.07,4.83c-2.09,1.39-3.89,2.59-4.95,5.73C72.82,31.73,74.57,35.08,75,35.76Z"/><path class="cls-3" d="M82.39,46.45c.22-1.11.8-5.32-2.45-7.67s-6.75-2.43-10.42-2.47c-3.14,0-6.38-.07-9.87-1.51-.5,3.74-2.09,6.57-3.63,9.31-1.8,3.19-3.49,6.21-3.07,10.25s4.35,5.6,5.42,6a30.33,30.33,0,0,1,24-13.87Z"/><path class="cls-2" d="M109.57,62.09a29.59,29.59,0,1,0-10.83,40.42A29.61,29.61,0,0,0,109.57,62.09Z"/><path class="cls-3" d="M108.9,61a29.79,29.79,0,0,0-16-4.67,29.58,29.58,0,0,0-25.57,44.38c.22.39.46.77.7,1.15a29.31,29.31,0,0,1-9.7-10.15A29.59,29.59,0,0,1,108.9,61Z"/><path class="cls-2" d="M120.9,44c-3.41.69-5.43,3.88-5.83,4.57a12.87,12.87,0,0,1,.77,5.91c-.44,4.27-4.38,6.11-5.82,6.64.11.18.23.36.33.54l.31.56c1.18-1,4.73-3.47,8.66-1.72a12.91,12.91,0,0,1,4.73,3.62c.78,0,4.56-.14,6.87-2.77,2.19-2.48,2.33-4.64,2.49-7.15a15.15,15.15,0,0,1,1.64-6.8,14.93,14.93,0,0,1-6.71-2C126.09,44.29,124.15,43.33,120.9,44Z"/><path class="cls-2" d="M56.82,63c-.85-.74-4.21-3.36-7.88-1.72s-5.48,4.64-7.34,7.79c-1.61,2.7-3.26,5.5-6.24,7.8,3,2.3,4.63,5.09,6.24,7.79,1.86,3.16,3.63,6.13,7.34,7.79s7-1,7.86-1.7A30.5,30.5,0,0,1,56.82,63Z"/><path class="cls-2" d="M85.5,107.34c-.22,1.13-.78,5.31,2.45,7.65s6.76,2.43,10.42,2.47c3.15,0,6.39.08,9.88,1.51.5-3.73,2.09-6.56,3.63-9.3,1.79-3.2,3.49-6.22,3.07-10.26s-4.35-5.6-5.42-6a30.46,30.46,0,0,1-24,13.89Z"/><path class="cls-3" d="M58.36,93.46c-1.09.37-5,2-5.41,6s1.27,7.06,3.07,10.26c1.54,2.74,3.13,5.57,3.63,9.3,3.49-1.43,6.73-1.47,9.87-1.51,3.67,0,7.13-.08,10.42-2.47s2.68-6.53,2.46-7.65a31.34,31.34,0,0,1-6.34-1A30.25,30.25,0,0,1,58.36,93.46Z"/><path class="cls-3" d="M130.92,92.44c-2.31-2.63-6.09-2.77-6.87-2.77a12.91,12.91,0,0,1-4.73,3.62,6.78,6.78,0,0,1-2.82.61,9.61,9.61,0,0,1-5.84-2.33c-.21.37-.42.74-.64,1.1,1.44.54,5.38,2.37,5.82,6.64a12.92,12.92,0,0,1-.77,5.92c.4.68,2.42,3.87,5.83,4.56,3.25.65,5.19-.31,7.44-1.42a15.18,15.18,0,0,1,6.71-2,15.15,15.15,0,0,1-1.64-6.8C133.25,97.09,133.11,94.92,130.92,92.44Z"/><path class="cls-3" d="M120.73,110.67a10.11,10.11,0,0,1-6.08-4.41,41.4,41.4,0,0,1-2,3.85c-1.58,2.8-3.21,5.71-3.59,9.56a.44.44,0,0,1-.22.34.46.46,0,0,1-.23.06.39.39,0,0,1-.18,0c-3.53-1.59-6.86-1.63-10.08-1.67a40.9,40.9,0,0,1-4.32-.19,10.13,10.13,0,0,1,.78,7.46,9.89,9.89,0,0,1-2.29,3.85c3.38,1.36,6.88,1.42,10.58,1.46,4.21.05,8.57.1,13.24,2.07.63-5,2.77-8.83,4.83-12.5,1.81-3.22,3.51-6.29,4-9.9a9.06,9.06,0,0,1-2.28.29A11,11,0,0,1,120.73,110.67Z"/><path class="cls-2" d="M37,61.33c2.31,2.63,6.09,2.77,6.87,2.77a12.91,12.91,0,0,1,4.73-3.62c3.92-1.75,7.47.74,8.66,1.72.2-.37.42-.74.64-1.1-1.45-.53-5.38-2.37-5.83-6.64a12.87,12.87,0,0,1,.78-5.91c-.4-.69-2.42-3.88-5.84-4.57a8.77,8.77,0,0,0-4.6.21.49.49,0,0,1-.24.08h0a23,23,0,0,0-2.58,1.13,14.89,14.89,0,0,1-6.71,2,15,15,0,0,1,1.65,6.8C34.65,56.69,34.79,58.85,37,61.33Z"/><path class="cls-2" d="M140.34,66.45c-1.88-3.18-3.68-6.18-6.55-8.42a9.94,9.94,0,0,1-2.19,3.9A10.1,10.1,0,0,1,124.74,65a42,42,0,0,1,2.33,3.65c1.65,2.77,3.34,5.63,6.49,7.89a.45.45,0,0,1,.18.37.43.43,0,0,1-.18.36c-3.15,2.26-4.84,5.12-6.49,7.89a42,42,0,0,1-2.33,3.65,10.12,10.12,0,0,1,6.86,3.06,9.81,9.81,0,0,1,2.19,3.9c2.87-2.25,4.67-5.25,6.55-8.43,2.15-3.63,4.37-7.37,8.41-10.43C144.71,73.82,142.49,70.08,140.34,66.45Z"/><path class="cls-3" d="M36.3,91.85a10.06,10.06,0,0,1,6.86-3.06,42.09,42.09,0,0,1-2.34-3.65c-1.64-2.77-3.34-5.63-6.48-7.89a.44.44,0,0,1-.19-.36.45.45,0,0,1,.19-.37c3.14-2.26,4.84-5.12,6.48-7.89A42.09,42.09,0,0,1,43.16,65a10.1,10.1,0,0,1-6.86-3.05A9.94,9.94,0,0,1,34.11,58c-2.87,2.24-4.67,5.24-6.56,8.42-2.15,3.63-4.37,7.37-8.4,10.44,4,3.06,6.25,6.8,8.4,10.43,1.89,3.18,3.69,6.18,6.56,8.43A9.81,9.81,0,0,1,36.3,91.85Z"/><path class="cls-3" d="M47,109.79c3.43-.69,5.44-3.88,5.84-4.56a12.92,12.92,0,0,1-.78-5.92c.45-4.27,4.38-6.1,5.83-6.64l-.34-.54-.3-.56A9.64,9.64,0,0,1,51.4,93.9a6.75,6.75,0,0,1-2.82-.61,12.91,12.91,0,0,1-4.73-3.62c-.78,0-4.57.15-6.87,2.77s-2.33,4.65-2.49,7.15a15,15,0,0,1-1.65,6.8,15.1,15.1,0,0,1,6.71,2,22.38,22.38,0,0,0,2.48,1.1l.07,0a.41.41,0,0,1,.38.16A8.9,8.9,0,0,0,47,109.79Z"/><path class="cls-2" d="M92.93,118a12.94,12.94,0,0,1-5.51-2.29c-3.47-2.51-3.1-6.82-2.84-8.35l-.58,0-.69,0c.26,1.52.64,5.83-2.84,8.35A13,13,0,0,1,75,118c-.4.68-2.15,4-1,7.33,1.06,3.14,2.86,4.34,4.95,5.73A15.08,15.08,0,0,1,84,135.9,15,15,0,0,1,89,131.07c2.08-1.39,3.89-2.59,5-5.73C95.08,122,93.32,118.69,92.93,118Z"/><path class="cls-2" d="M73.86,118.17a40.9,40.9,0,0,1-4.32.19c-3.22,0-6.55.08-10.08,1.67a.41.41,0,0,1-.19,0,.46.46,0,0,1-.22-.06.42.42,0,0,1-.22-.34c-.39-3.85-2-6.76-3.6-9.56-.72-1.29-1.42-2.54-2-3.85a10.09,10.09,0,0,1-6.07,4.41,11,11,0,0,1-2.19.23,9.06,9.06,0,0,1-2.28-.29c.5,3.61,2.2,6.68,4,9.9,2.06,3.67,4.19,7.47,4.83,12.5,4.67-2,9-2,13.24-2.07,3.69,0,7.19-.1,10.57-1.46a9.57,9.57,0,0,1-1.5-11.31Z"/><path class="cls-4" d="M58.52,60.84s-5.5-1.46-6-6.43c-.81-7.82,5.93-11.77,6.77-20.26,7.78,3.51,14.57-.35,20.94,4.27,4.05,2.93,2.56,8.42,2.56,8.42"/><path class="cls-4" d="M57.34,90.88s-4,4-8.58,2c-7.18-3.21-7.23-11-14.16-16,6.93-5,7-12.79,14.16-16,4.57-2,8.58,2,8.58,2"/><path class="cls-4" d="M82.77,106.93s1.49,5.49-2.56,8.43c-6.37,4.61-13.16.75-20.94,4.26-.84-8.49-7.58-12.43-6.77-20.26.52-5,6-6.43,6-6.43"/><path class="cls-4" d="M109.37,92.93s5.51,1.46,6,6.43c.81,7.83-5.93,11.77-6.78,20.26-7.77-3.51-14.56.35-20.93-4.26-4-2.94-2.56-8.43-2.56-8.43"/><path class="cls-4" d="M110.56,62.89s4-4,8.58-2c7.18,3.21,7.23,11,14.16,16-6.93,5-7,12.78-14.16,16-4.57,2-8.58-2-8.58-2"/><path class="cls-4" d="M85.13,46.84s-1.49-5.49,2.56-8.42c6.37-4.62,13.16-.76,20.93-4.27.85,8.49,7.59,12.44,6.78,20.26-.52,5-6,6.43-6,6.43"/><circle class="cls-4" cx="83.95" cy="76.89" r="30.04"/><path class="cls-4" d="M74.67,36.14s-2.5-3.91-1.16-7.85C75.6,22.08,80.7,23,84,17c3.25,6,8.35,5.1,10.44,11.31,1.33,3.94-1.16,7.85-1.16,7.85"/><path class="cls-4" d="M44,64.55s-4.64.2-7.38-2.92c-4.33-4.92-1-8.89-4.57-14.7,6.8.18,8.59-4.68,15-3.39,4.08.82,6.22,4.93,6.22,4.93"/><path class="cls-4" d="M53.3,105.3s-2.14,4.11-6.22,4.93c-6.42,1.29-8.21-3.57-15-3.39,3.55-5.8.24-9.78,4.57-14.7C39.38,89,44,89.22,44,89.22"/><path class="cls-4" d="M93.23,117.63s2.49,3.92,1.16,7.86c-2.09,6.2-7.19,5.32-10.44,11.31-3.25-6-8.35-5.11-10.44-11.31-1.34-3.94,1.16-7.86,1.16-7.86"/><path class="cls-4" d="M123.88,89.22s4.63-.2,7.38,2.92c4.32,4.92,1,8.9,4.57,14.7-6.8-.18-8.59,4.68-15,3.39-4.08-.82-6.23-4.93-6.23-4.93"/><path class="cls-4" d="M114.59,48.47s2.15-4.11,6.23-4.93c6.42-1.29,8.21,3.57,15,3.39-3.56,5.81-.25,9.78-4.57,14.7-2.75,3.12-7.38,2.92-7.38,2.92"/><path class="cls-4" d="M42.15,43.82c.79-8.4,8-13.65,9-23.71,9,4.08,17.07.66,24.61,3.85"/><path class="cls-4" d="M34.38,96.53c-6.85-4.88-7.79-13.76-16-19.64,8.2-5.89,9.14-14.77,16-19.65"/><path class="cls-4" d="M76.18,129.63c-7.66,3.49-15.81-.12-25,4-1-10.08-8.27-15.34-9-23.76"/><path class="cls-4" d="M125.74,110c-.81,8.37-8,13.63-9,23.66-9.2-4.15-17.36-.54-25-4"/><path class="cls-4" d="M133.51,57.24c6.85,4.88,7.8,13.76,16,19.65-8.2,5.88-9.15,14.76-16,19.64"/><path class="cls-4" d="M91.72,24.14c7.65-3.49,15.81.13,25-4,1,9.87,8,15.12,9,23.24"/></g></g></svg>