<svg xmlns="http://www.w3.org/2000/svg" viewBox="0 0 160.31 160.31"><defs><style>.cls-1,.cls-4{fill:none;stroke-linecap:round;stroke-linejoin:round;stroke-width:4px;}.cls-1{stroke:#9bdc1e;}.cls-2{fill:#9bdc1e;}.cls-3{fill:#b4ed37;}.cls-4{stroke:#000;}</style></defs><title>heart</title><g id="Layer_2" data-name="Layer 2"><g id="OBJECTS"><path class="cls-1" d="M67.16,28.83s-3.49-5.48-1.63-11C68.47,9.15,75.61,10.37,80.15,2c4.55,8.37,11.69,7.15,14.62,15.83,1.87,5.52-1.62,11-1.62,11"/><path class="cls-1" d="M43.24,42.2s-5.76-3-6.91-8.71c-1.8-9,5-11.49,4.75-21,8.12,5,13.69.35,20.57,6.4,4.37,3.85,4.09,10.34,4.09,10.34"/><path class="cls-1" d="M29.21,65.74s-6.49.28-10.34-4.09c-6.05-6.88-1.42-12.45-6.4-20.57,9.53.25,12-6.55,21-4.75,5.71,1.15,8.71,6.91,8.71,6.91"/><path class="cls-1" d="M28.83,93.15s-5.48,3.49-11,1.62C9.15,91.84,10.37,84.7,2,80.15c8.37-4.54,7.15-11.68,15.83-14.62,5.52-1.86,11,1.63,11,1.63"/><path class="cls-1" d="M42.2,117.07s-3,5.76-8.71,6.9c-9,1.81-11.49-5-21-4.74,5-8.13.35-13.7,6.4-20.58,3.85-4.37,10.34-4.09,10.34-4.09"/><path class="cls-1" d="M65.74,131.1s.28,6.49-4.09,10.33c-6.88,6.06-12.45,1.43-20.57,6.4.25-9.52-6.55-12-4.75-21,1.15-5.71,6.91-8.72,6.91-8.72"/><path class="cls-1" d="M93.15,131.48s3.49,5.48,1.62,11c-2.93,8.69-10.07,7.46-14.62,15.84-4.54-8.38-11.68-7.15-14.62-15.84-1.86-5.51,1.63-11,1.63-11"/><path class="cls-1" d="M117.07,118.1s5.76,3,6.9,8.72c1.81,9-5,11.49-4.74,21-8.13-5-13.7-.34-20.58-6.4-4.37-3.84-4.09-10.33-4.09-10.33"/><path class="cls-1" d="M131.1,94.56s6.49-.28,10.34,4.09c6.05,6.88,1.42,12.45,6.39,20.58-9.52-.25-12,6.55-21,4.74-5.71-1.14-8.72-6.9-8.72-6.9"/><path class="cls-1" d="M131.48,67.16s5.48-3.49,11-1.63c8.69,2.94,7.46,10.08,15.84,14.62-8.38,4.55-7.15,11.69-15.84,14.62-5.51,1.87-11-1.62-11-1.62"/><path class="cls-1" d="M118.1,43.24s3-5.76,8.72-6.91c9-1.8,11.49,5,21,4.75-5,8.12-.34,13.69-6.39,20.57-3.85,4.37-10.34,4.09-10.34,4.09"/><path class="cls-1" d="M94.56,29.21s-.28-6.49,4.09-10.34c6.88-6.05,12.45-1.42,20.58-6.4-.25,9.53,6.55,12,4.74,21-1.14,5.71-6.9,8.71-6.9,8.71"/><circle class="cls-1" cx="80.15" cy="80.15" r="52.94"/><polygon class="cls-1" points="126.38 54.35 33.93 54.35 80.15 133.09 126.38 54.35"/><polygon class="cls-1" points="33.93 105.96 125.7 105.96 80.15 27.22 33.93 105.96"/><path class="cls-2" d="M110.4,49.9h0l0,0Z"/><path class="cls-3" d="M67.15,59.06,79.36,38.27A41.92,41.92,0,0,0,44,59.06Z"/><polygon class="cls-2" points="104.83 81.36 93.68 100.35 115.81 100.35 104.83 81.36"/><path class="cls-2" d="M38.82,91.23h0Z"/><path class="cls-2" d="M38.8,69.07h0Z"/><path class="cls-3" d="M93,59.06h23.36A41.92,41.92,0,0,0,80.94,38.27Z"/><path class="cls-2" d="M91.22,38.81h0v0Z"/><path class="cls-2" d="M69.07,38.8v0h0Z"/><path class="cls-2" d="M49.88,49.88l0,0h0Z"/><path class="cls-3" d="M54.77,80.15,43.2,60.44a41.74,41.74,0,0,0,0,39.43Z"/><path class="cls-3" d="M117.11,60.44l-11.76,20,11.5,19.87a41.79,41.79,0,0,0,.26-39.9Z"/><path class="cls-2" d="M121.51,91.23h0Z"/><path class="cls-3" d="M93.15,101.25,81,122a41.91,41.91,0,0,0,35.38-20.78Z"/><path class="cls-3" d="M111.05,50.59a43.07,43.07,0,0,1,6.41,8.63.46.46,0,0,1,.07.07s0,.05,0,.08a42.24,42.24,0,0,1,3.68,8.81c1.12,0,5.13-.3,7.61-3.12s2.63-5.35,2.8-8.05a16.73,16.73,0,0,1,1.88-7.67,16.67,16.67,0,0,1-7.58-2.21c-2.43-1.19-4.72-2.33-8.37-1.59S111.61,49.66,111.05,50.59Z"/><path class="cls-2" d="M110.43,110.43l0,0h0Z"/><path class="cls-2" d="M69.08,121.49h0v0Z"/><path class="cls-3" d="M67.15,101.25H44A41.91,41.91,0,0,0,79.36,122Z"/><path class="cls-2" d="M49.91,110.41h0l0,0Z"/><path class="cls-2" d="M91.23,121.51v0h0Z"/><path class="cls-3" d="M80.15,123A42.71,42.71,0,0,1,70,121.72c-.54,1-2.3,4.58-1.1,8.15s3.32,4.94,5.57,6.44a16.78,16.78,0,0,1,5.7,5.46,16.8,16.8,0,0,1,5.71-5.46c2.25-1.5,4.37-2.92,5.56-6.44s-.56-7.17-1.1-8.15A42.59,42.59,0,0,1,80.15,123Z"/><path class="cls-3" d="M49.25,109.72a42.85,42.85,0,0,1-6.41-8.64l-.06-.06s0,0,0-.07a43.13,43.13,0,0,1-3.69-8.82c-1.12,0-5.12.3-7.61,3.12s-2.62,5.34-2.8,8A16.71,16.71,0,0,1,26.79,111a16.79,16.79,0,0,1,7.58,2.21c2.42,1.2,4.71,2.33,8.36,1.6S48.7,110.65,49.25,109.72Z"/><path class="cls-2" d="M45.54,117.57c-.74,3.65.39,5.94,1.59,8.37a16.63,16.63,0,0,1,2.21,7.58A16.73,16.73,0,0,1,57,131.64c2.7-.17,5.25-.34,8.05-2.8s3.1-6.49,3.12-7.61a42.74,42.74,0,0,1-17.59-10.18C49.66,111.61,46.28,113.86,45.54,117.57Z"/><path class="cls-2" d="M37.35,80.15A43.23,43.23,0,0,1,38.58,70c-1-.54-4.58-2.3-8.14-1.1s-5,3.32-6.45,5.57a16.78,16.78,0,0,1-5.46,5.7A16.7,16.7,0,0,1,24,85.86c1.5,2.25,2.92,4.37,6.45,5.56s7.17-.56,8.14-1.1A43.11,43.11,0,0,1,37.35,80.15Z"/><path class="cls-2" d="M50.59,49.25A42.74,42.74,0,0,1,68.18,39.07c0-1.11-.3-5.12-3.12-7.61s-5.35-2.62-8.05-2.8a16.71,16.71,0,0,1-7.67-1.87,16.71,16.71,0,0,1-2.21,7.58c-1.2,2.42-2.33,4.71-1.59,8.36S49.66,48.7,50.59,49.25Z"/><path class="cls-3" d="M42.76,59.36s0,0,0-.07a.34.34,0,0,1,.06-.06,42.85,42.85,0,0,1,6.41-8.64c-.55-.93-2.8-4.31-6.52-5.05s-5.94.4-8.36,1.59a16.67,16.67,0,0,1-7.58,2.21A16.71,16.71,0,0,1,28.66,57c.18,2.7.35,5.25,2.8,8.05s6.5,3.1,7.61,3.12A43.13,43.13,0,0,1,42.76,59.36Z"/><path class="cls-2" d="M136.31,74.45c-1.5-2.25-2.92-4.37-6.44-5.57s-7.17.56-8.15,1.1a42.66,42.66,0,0,1,0,20.34c1,.54,4.59,2.3,8.15,1.1s4.94-3.31,6.44-5.56a16.8,16.8,0,0,1,5.46-5.71A16.78,16.78,0,0,1,136.31,74.45Z"/><path class="cls-3" d="M111.05,109.72c.56.93,2.81,4.3,6.52,5s5.94-.4,8.37-1.6a16.79,16.79,0,0,1,7.58-2.21,16.73,16.73,0,0,1-1.88-7.67c-.17-2.7-.34-5.24-2.8-8s-6.49-3.11-7.61-3.12A42.8,42.8,0,0,1,111.05,109.72Z"/><path class="cls-2" d="M109.72,111.05a42.8,42.8,0,0,1-17.59,10.18c0,1.12.3,5.13,3.12,7.61s5.34,2.63,8,2.8a16.73,16.73,0,0,1,7.67,1.88,16.76,16.76,0,0,1,2.21-7.58c1.2-2.43,2.33-4.72,1.6-8.37S110.65,111.61,109.72,111.05Z"/><polygon class="cls-2" points="55.29 79.26 66.63 59.96 43.96 59.96 55.29 79.26"/><polygon class="cls-2" points="68.2 59.06 91.93 59.06 80.15 38.7 68.2 59.06"/><polygon class="cls-2" points="55.29 81.04 43.96 100.35 66.63 100.35 55.29 81.04"/><polygon class="cls-2" points="67.67 59.96 55.81 80.15 67.67 100.35 92.64 100.35 104.31 80.46 92.45 59.96 67.67 59.96"/><polygon class="cls-3" points="64.81 80.16 76.67 100.34 67.67 100.34 55.81 80.16 67.67 59.96 76.67 59.96 64.81 80.16"/><polygon class="cls-2" points="93.49 59.96 104.83 79.57 116.35 59.96 93.49 59.96"/><polygon class="cls-2" points="92.11 101.25 68.2 101.25 80.15 121.61 92.11 101.25"/><path class="cls-2" d="M114.77,42.73c.73-3.65-.4-5.94-1.6-8.36A16.83,16.83,0,0,1,111,26.79a16.71,16.71,0,0,1-7.67,1.87c-2.7.18-5.24.34-8,2.8s-3.1,6.5-3.12,7.61a42.8,42.8,0,0,1,17.59,10.18C110.65,48.7,114,46.45,114.77,42.73Z"/><path class="cls-3" d="M80.15,37.35a.29.29,0,0,1,.13,0,42.6,42.6,0,0,1,10,1.23c.54-1,2.3-4.59,1.1-8.15s-3.31-5-5.56-6.45a16.8,16.8,0,0,1-5.71-5.46A16.78,16.78,0,0,1,74.45,24c-2.25,1.5-4.37,2.92-5.57,6.45s.56,7.17,1.1,8.15A42.72,42.72,0,0,1,80.15,37.35Z"/><path class="cls-2" d="M121.49,69.08h0Z"/><path class="cls-4" d="M69.76,39.09s-2.79-4.38-1.3-8.8c2.34-6.94,8.05-6,11.69-12.66,3.64,6.7,9.35,5.72,11.7,12.66,1.49,4.42-1.3,8.8-1.3,8.8"/><path class="cls-4" d="M50.62,49.79s-4.61-2.4-5.52-7c-1.45-7.19,4-9.19,3.79-16.81,6.5,4,11,.27,16.46,5.12,3.5,3.07,3.28,8.27,3.28,8.27"/><path class="cls-4" d="M39.4,68.63s-5.2.22-8.27-3.28c-4.85-5.5-1.14-10-5.12-16.46,7.62.2,9.62-5.24,16.81-3.79,4.57.91,7,5.52,7,5.52"/><path class="cls-4" d="M39.09,90.55s-4.38,2.79-8.8,1.3c-6.94-2.35-6-8.06-12.66-11.7,6.7-3.64,5.72-9.35,12.66-11.69,4.42-1.49,8.8,1.3,8.8,1.3"/><path class="cls-4" d="M49.79,109.69s-2.4,4.6-7,5.52c-7.19,1.44-9.19-4-16.81-3.8,4-6.5.27-11,5.12-16.46,3.07-3.49,8.27-3.27,8.27-3.27"/><path class="cls-4" d="M68.63,120.91s.22,5.19-3.28,8.27c-5.5,4.84-10,1.14-16.46,5.12.2-7.62-5.24-9.63-3.79-16.82.91-4.56,5.52-7,5.52-7"/><path class="cls-4" d="M90.55,121.21s2.79,4.39,1.3,8.8c-2.35,7-8.06,6-11.7,12.66C76.51,136,70.8,137,68.46,130c-1.49-4.41,1.3-8.8,1.3-8.8"/><path class="cls-4" d="M109.69,110.51s4.6,2.41,5.52,7c1.44,7.19-4,9.2-3.8,16.82-6.5-4-11-.28-16.46-5.12-3.49-3.08-3.27-8.27-3.27-8.27"/><path class="cls-4" d="M120.91,91.68s5.19-.22,8.27,3.27c4.84,5.51,1.14,10,5.12,16.46-7.62-.2-9.63,5.24-16.82,3.8-4.56-.92-7-5.52-7-5.52"/><path class="cls-4" d="M121.21,69.76s4.39-2.79,8.8-1.3c7,2.34,6,8.05,12.66,11.69C136,83.79,137,89.5,130,91.85c-4.41,1.49-8.8-1.3-8.8-1.3"/><path class="cls-4" d="M110.51,50.62s2.41-4.61,7-5.52c7.19-1.45,9.2,4,16.82,3.79-4,6.5-.28,11-5.12,16.46-3.08,3.5-8.27,3.28-8.27,3.28"/><path class="cls-4" d="M91.68,39.4s-.22-5.2,3.27-8.27c5.51-4.85,10-1.14,16.46-5.12-.2,7.62,5.24,9.62,3.8,16.81-.92,4.57-5.52,7-5.52,7"/><circle class="cls-4" cx="80.15" cy="80.15" r="42.35"/><polygon class="cls-4" points="117.14 59.51 43.17 59.51 80.15 122.5 117.14 59.51"/><polygon class="cls-4" points="43.17 100.8 116.59 100.8 80.15 37.8 43.17 100.8"/></g></g></svg>