<svg xmlns="http://www.w3.org/2000/svg" viewBox="0 0 167.09 145.24"><defs><style>.cls-1,.cls-5{fill:none;stroke-linecap:round;stroke-linejoin:round;stroke-width:4px;}.cls-1{stroke:#ff9f3a;}.cls-2{fill:#ffae64;}.cls-3{fill:#ff9f3a;}.cls-4{fill:#ed892e;}.cls-5{stroke:#000;}</style></defs><title>sacral</title><g id="Layer_2" data-name="Layer 2"><g id="OBJECTS"><path class="cls-1" d="M41.53,46.11s-9.1-2.41-10-10.63C30.24,22.55,41.38,16,42.77,2c12.85,5.8,24.07-.58,34.59,7.05C84.05,13.89,81.59,23,81.59,23"/><path class="cls-1" d="M39.58,95.75s-6.64,6.67-14.18,3.3C13.53,93.75,13.45,80.84,2,72.62,13.45,64.4,13.53,51.49,25.4,46.19c7.54-3.37,14.18,3.3,14.18,3.3"/><path class="cls-1" d="M81.59,122.26s2.46,9.09-4.23,13.93c-10.52,7.63-21.74,1.24-34.59,7.05-1.39-14-12.53-20.55-11.19-33.48.85-8.22,10-10.63,10-10.63"/><path class="cls-1" d="M125.56,99.13s9.1,2.41,9.95,10.63c1.34,12.93-9.8,19.45-11.19,33.48-12.85-5.81-24.07.58-34.59-7.05-6.69-4.84-4.23-13.93-4.23-13.93"/><path class="cls-1" d="M127.51,49.49s6.64-6.67,14.18-3.3c11.87,5.3,11.95,18.21,23.4,26.43-11.45,8.22-11.53,21.13-23.4,26.43-7.54,3.37-14.18-3.3-14.18-3.3"/><path class="cls-1" d="M85.5,23S83,13.89,89.73,9.05c10.52-7.63,21.74-1.25,34.59-7,1.39,14,12.53,20.55,11.19,33.48-.85,8.22-9.95,10.63-9.95,10.63"/><circle class="cls-1" cx="83.54" cy="72.62" r="49.64"/><circle class="cls-1" cx="83.54" cy="72.62" r="30.06"/><circle class="cls-1" cx="83.54" cy="61.3" r="18.74"/><path class="cls-2" d="M103.62,107.39a39.77,39.77,0,0,1-18.14,5.31c-.27,1.26-1.24,7.16,3.27,10.42s9,3.24,13.86,3.29c4.2,0,8.53.1,13.18,2.06.63-5,2.75-8.78,4.81-12.44,2.39-4.25,4.64-8.25,4.08-13.65s-6.15-7.64-7.38-8A40,40,0,0,1,103.62,107.39Z"/><path class="cls-3" d="M49.79,94.34c-1.22.4-6.8,2.51-7.38,8s1.69,9.4,4.08,13.65c2.06,3.66,4.18,7.44,4.81,12.44,4.65-2,9-2,13.18-2.06,4.87,0,9.47-.1,13.86-3.29s3.54-9.17,3.27-10.42A40.18,40.18,0,0,1,49.79,94.34Z"/><path class="cls-2" d="M117.31,50.9c1.26-.42,6.79-2.53,7.37-8S123,33.45,120.6,29.21c-2.06-3.66-4.18-7.44-4.81-12.44-4.65,2-9,2-13.18,2.05-4.87.06-9.47.11-13.86,3.3s-3.54,9.17-3.27,10.42A40.13,40.13,0,0,1,117.31,50.9Z"/><path class="cls-2" d="M47.87,54.25c-1-.86-5.58-4.65-10.66-2.37s-7.3,6.17-9.79,10.35c-2.14,3.61-4.35,7.34-8.37,10.39,4,3,6.23,6.78,8.37,10.39,2.49,4.18,4.83,8.14,9.79,10.35S46.86,91.89,47.85,91A40.14,40.14,0,0,1,47.87,54.25Z"/><path class="cls-3" d="M69,63.56A14.55,14.55,0,1,0,83.55,49,14.56,14.56,0,0,0,69,63.56Z"/><path class="cls-2" d="M95.79,55.73A14.54,14.54,0,0,0,75.72,75.82,14.54,14.54,0,1,1,95.79,55.73Z"/><path class="cls-3" d="M63.47,37.85a39.91,39.91,0,0,1,18.14-5.32c.27-1.27,1.23-7.15-3.27-10.41s-9-3.24-13.86-3.3c-4.2,0-8.53-.09-13.18-2.05-.63,5-2.75,8.78-4.81,12.44-2.39,4.24-4.64,8.25-4.08,13.65s6.15,7.64,7.38,8A40,40,0,0,1,63.47,37.85Z"/><path class="cls-3" d="M139.67,62.23c-2.49-4.18-4.83-8.14-9.79-10.35s-9.65,1.47-10.64,2.36a40.14,40.14,0,0,1,0,36.75c1,.86,5.58,4.64,10.66,2.37s7.3-6.17,9.79-10.35c2.14-3.61,4.35-7.34,8.37-10.39C144,69.57,141.81,65.84,139.67,62.23Z"/><path class="cls-4" d="M107.15,72.62a23.61,23.61,0,0,1-47.21,0,23.31,23.31,0,0,1,1.92-9.31A23.68,23.68,0,0,1,75.47,50.44a15.43,15.43,0,1,0,16.15,0,23.63,23.63,0,0,1,13.62,12.9A23.3,23.3,0,0,1,107.15,72.62Z"/><path class="cls-2" d="M105.25,63.56a21.7,21.7,0,1,1-43.4,0,2.09,2.09,0,0,1,0-.25A23.68,23.68,0,0,1,75.47,50.44a15.43,15.43,0,1,0,16.15,0,23.63,23.63,0,0,1,13.62,12.9A1.62,1.62,0,0,1,105.25,63.56Z"/><path class="cls-2" d="M117.55,53a39.26,39.26,0,1,0-14.37,53.64A39.27,39.27,0,0,0,117.55,53Zm-34,44.12A24.49,24.49,0,1,1,108,72.62,24.52,24.52,0,0,1,83.55,97.11Z"/><path class="cls-5" d="M49.93,51.41s-7.27-1.93-8-8.5c-1.07-10.35,7.84-15.56,9-26.79,10.27,4.65,19.25-.46,27.67,5.64C84,25.64,82,32.91,82,32.91"/><path class="cls-5" d="M48.37,91.12S43.06,96.46,37,93.77c-9.5-4.24-9.56-14.57-18.72-21.15C27.47,66,27.53,55.71,37,51.47c6-2.69,11.34,2.65,11.34,2.65"/><path class="cls-5" d="M82,112.33s2,7.27-3.38,11.15c-8.42,6.1-17.4,1-27.67,5.64-1.12-11.23-10-16.44-9-26.79.69-6.57,8-8.5,8-8.5"/><path class="cls-5" d="M117.16,93.83s7.27,1.93,8,8.5c1.07,10.35-7.84,15.56-9,26.79-10.27-4.65-19.25.46-27.67-5.64-5.35-3.88-3.38-11.15-3.38-11.15"/><path class="cls-5" d="M118.72,54.12s5.31-5.34,11.34-2.65c9.5,4.24,9.56,14.57,18.72,21.15-9.16,6.58-9.22,16.91-18.72,21.15-6,2.69-11.34-2.65-11.34-2.65"/><path class="cls-5" d="M85.11,32.91s-2-7.27,3.38-11.15c8.42-6.1,17.4-1,27.67-5.64,1.12,11.23,10,16.44,9,26.79-.69,6.57-8,8.5-8,8.5"/><circle class="cls-5" cx="83.54" cy="72.62" r="39.71"/><circle class="cls-5" cx="83.54" cy="72.62" r="24.05"/><circle class="cls-5" cx="83.54" cy="63.56" r="14.99"/></g></g></svg>