<svg xmlns="http://www.w3.org/2000/svg" viewBox="0 0 156.78 156.78"><defs><style>.cls-1,.cls-4{fill:none;stroke-linecap:round;stroke-linejoin:round;stroke-width:4px;}.cls-1{stroke:#52c3e6;}.cls-2{fill:#80e7ff;}.cls-3{fill:#52c3e6;}.cls-4{stroke:#000;}</style></defs><title>throat</title><g id="Layer_2" data-name="Layer 2"><g id="OBJECTS"><path class="cls-1" d="M68.12,23.2s-2.75-4.33-1.28-8.69C69.16,7.65,74.8,8.62,78.39,2,82,8.62,87.63,7.65,89.94,14.51c1.48,4.36-1.28,8.69-1.28,8.69"/><path class="cls-1" d="M47.78,31.33s-4.2-2.95-4.51-7.54c-.48-7.22,5.1-8.49,5.89-16C55,12.55,59.85,9.5,64.62,15c3,3.47,2.14,8.52,2.14,8.52"/><path class="cls-1" d="M32.1,46.63s-5-1.12-7-5.24c-3.21-6.49,1.46-9.79-.68-17,7.23,2.14,10.53-2.53,17,.68,4.12,2,5.24,7.05,5.24,7.05"/><path class="cls-1" d="M23.47,66.76s-5,.89-8.52-2.14C9.5,59.85,12.55,55,7.81,49.16c7.49-.79,8.76-6.37,16-5.89,4.59.31,7.54,4.51,7.54,4.51"/><path class="cls-1" d="M23.2,88.66s-4.33,2.76-8.69,1.28C7.65,87.63,8.62,82,2,78.39c6.62-3.59,5.65-9.23,12.51-11.55,4.36-1.47,8.69,1.28,8.69,1.28"/><path class="cls-1" d="M31.33,109s-2.95,4.2-7.54,4.51c-7.22.49-8.49-5.1-16-5.88,4.74-5.86,1.69-10.7,7.14-15.47,3.47-3,8.52-2.13,8.52-2.13"/><path class="cls-1" d="M46.63,124.68s-1.12,5-5.24,7c-6.49,3.21-9.79-1.46-17,.68,2.14-7.22-2.53-10.53.68-17,2-4.12,7.05-5.23,7.05-5.23"/><path class="cls-1" d="M66.76,133.31s.89,5.06-2.14,8.52c-4.77,5.45-9.61,2.4-15.46,7.14-.79-7.49-6.37-8.75-5.89-16,.31-4.59,4.51-7.54,4.51-7.54"/><path class="cls-1" d="M88.66,133.58s2.76,4.33,1.28,8.69c-2.31,6.86-8,5.89-11.55,12.51-3.59-6.62-9.23-5.65-11.55-12.51-1.47-4.36,1.28-8.69,1.28-8.69"/><path class="cls-1" d="M109,125.45s4.2,3,4.51,7.54c.49,7.23-5.1,8.49-5.88,16-5.86-4.74-10.7-1.69-15.47-7.14-3-3.46-2.13-8.52-2.13-8.52"/><path class="cls-1" d="M124.68,110.16s5,1.11,7,5.23c3.21,6.49-1.46,9.8.68,17-7.22-2.14-10.53,2.53-17-.68-4.12-2-5.23-7-5.23-7"/><path class="cls-1" d="M133.31,90s5.06-.89,8.52,2.13c5.45,4.77,2.4,9.61,7.14,15.47-7.49.78-8.75,6.37-16,5.88-4.59-.31-7.54-4.51-7.54-4.51"/><path class="cls-1" d="M133.58,68.12s4.33-2.75,8.69-1.28c6.86,2.32,5.89,8,12.51,11.55-6.62,3.6-5.65,9.24-12.51,11.55-4.36,1.48-8.69-1.28-8.69-1.28"/><path class="cls-1" d="M125.45,47.78s3-4.2,7.54-4.51c7.23-.48,8.49,5.1,16,5.89-4.74,5.85-1.69,10.69-7.14,15.46-3.46,3-8.52,2.14-8.52,2.14"/><path class="cls-1" d="M110.16,32.1s1.11-5,5.23-7c6.49-3.21,9.8,1.46,17-.68-2.14,7.23,2.53,10.53-.68,17-2,4.12-7,5.24-7,5.24"/><path class="cls-1" d="M90,23.47s-.89-5,2.13-8.52c4.77-5.45,9.61-2.4,15.47-7.14.78,7.49,6.37,8.76,5.88,16-.31,4.59-4.51,7.54-4.51,7.54"/><circle class="cls-1" cx="78.39" cy="78.39" r="56.15"/><circle class="cls-1" cx="78.39" cy="82.42" r="27.57" transform="translate(-26.76 39.04) rotate(-24.02)"/><polygon class="cls-1" points="27.67 54.28 78.39 134.54 129.11 54.28 27.67 54.28"/><path class="cls-2" d="M74,59.55H38.63L57,88.64A22.49,22.49,0,0,1,74,59.55Z"/><path class="cls-2" d="M62.84,97.86l15.55,24.61L93.91,97.9a22.46,22.46,0,0,1-31.07,0Z"/><path class="cls-2" d="M82.8,59.55a22.55,22.55,0,0,1,17,29.06l18.36-29.06Z"/><path class="cls-3" d="M31.65,68.63a10.17,10.17,0,0,0,2.43.05A45.23,45.23,0,0,1,37.4,59s0-.06,0-.09l0,0a45.25,45.25,0,0,1,2.74-4.91,9.64,9.64,0,0,0-1.79-1.71c-.23-.14-.46-.3-.69-.47a6.73,6.73,0,0,0-3-1c-2.91-.19-4.49.87-6.33,2.1a13.67,13.67,0,0,1-5.6,2.51,13.6,13.6,0,0,1,2.19,5.72c.43,2.17.8,4.05,3,6a6.67,6.67,0,0,0,2.83,1.43A8.06,8.06,0,0,1,31.65,68.63Z"/><path class="cls-3" d="M51.75,37.7c.17.24.34.49.48.73a10.58,10.58,0,0,0,1.71,1.78,45.19,45.19,0,0,1,14.74-6.13,10,10,0,0,0-.06-2.46c-.06-.26-.11-.53-.16-.81A6.58,6.58,0,0,0,67,27.94c-1.91-2.2-3.79-2.57-6-3a13.55,13.55,0,0,1-5.72-2.19,13.67,13.67,0,0,1-2.51,5.6c-1.23,1.84-2.29,3.43-2.1,6.33A6.64,6.64,0,0,0,51.75,37.7Z"/><path class="cls-2" d="M38.2,51a8.42,8.42,0,0,1,.73.49,10.47,10.47,0,0,0,2.26,1A45.79,45.79,0,0,1,52.47,41.19a10.67,10.67,0,0,0-1-2.27c-.16-.22-.31-.45-.46-.69a6.77,6.77,0,0,0-2.42-2.11c-2.61-1.29-4.48-.92-6.65-.48a13.7,13.7,0,0,1-6.13.17,13.7,13.7,0,0,1-.17,6.13c-.44,2.17-.81,4,.48,6.65A6.64,6.64,0,0,0,38.2,51Z"/><path class="cls-3" d="M102.84,40.21a10.48,10.48,0,0,0,1.72-1.8c.14-.23.29-.46.46-.69a6.73,6.73,0,0,0,1-3c.19-2.9-.87-4.49-2.1-6.33a13.54,13.54,0,0,1-2.5-5.6,13.59,13.59,0,0,1-5.73,2.19c-2.17.43-4,.8-6,3a6.69,6.69,0,0,0-1.43,2.87c0,.28-.1.55-.16.81a10.56,10.56,0,0,0-.06,2.46A45.19,45.19,0,0,1,102.84,40.21Z"/><path class="cls-2" d="M105.31,38.92a10,10,0,0,0-1,2.27,45.92,45.92,0,0,1,11.27,11.28,10.46,10.46,0,0,0,2.27-1c.22-.16.45-.31.7-.46a6.84,6.84,0,0,0,2.1-2.42c1.29-2.61.92-4.48.49-6.65a13.54,13.54,0,0,1-.18-6.13,13.7,13.7,0,0,1-6.13-.17c-2.17-.44-4-.81-6.65.48a6.65,6.65,0,0,0-2.41,2.11C105.63,38.47,105.47,38.7,105.31,38.92Z"/><path class="cls-3" d="M118.35,52.24a10.08,10.08,0,0,0-1.77,1.7,47.08,47.08,0,0,1,2.75,4.91l0,0s0,0,0,.08a44.59,44.59,0,0,1,3.32,9.72,10,10,0,0,0,2.46-.06l.82-.16A6.64,6.64,0,0,0,128.85,67c2.19-1.91,2.56-3.79,3-6A13.6,13.6,0,0,1,134,55.35a13.73,13.73,0,0,1-5.6-2.51c-1.84-1.23-3.42-2.3-6.33-2.1a6.6,6.6,0,0,0-3,1C118.84,51.92,118.6,52.09,118.35,52.24Z"/><path class="cls-3" d="M38.56,58.65h79.66A44.58,44.58,0,0,0,87.63,34.9l-.06,0a44.37,44.37,0,0,0-18.36,0l0,0A44.59,44.59,0,0,0,38.56,58.65Z"/><path class="cls-2" d="M69.52,31.44a10.31,10.31,0,0,0,.89,2.3,44.58,44.58,0,0,1,16,0,9.75,9.75,0,0,0,.9-2.3c0-.26.09-.54.16-.82a6.76,6.76,0,0,0-.22-3.19c-.93-2.76-2.52-3.82-4.36-5.05a13.62,13.62,0,0,1-4.46-4.21,13.6,13.6,0,0,1-4.45,4.21c-1.84,1.23-3.43,2.29-4.36,5.05a6.68,6.68,0,0,0-.23,3.2C69.42,30.9,69.48,31.18,69.52,31.44Z"/><path class="cls-3" d="M78.39,60A21.61,21.61,0,1,0,100,81.62,21.63,21.63,0,0,0,78.39,60Z"/><path class="cls-2" d="M97.48,71.52A21.59,21.59,0,0,0,68.3,100.71,21.6,21.6,0,1,1,97.48,71.52Z"/><path class="cls-3" d="M38.41,104.56a10,10,0,0,0,1.79-1.72A45.39,45.39,0,0,1,34.08,88.1a10.83,10.83,0,0,0-2.54.07l-.64.13a6.72,6.72,0,0,0-3,1.45c-2.2,1.91-2.57,3.79-3,6a13.59,13.59,0,0,1-2.19,5.73,13.54,13.54,0,0,1,5.6,2.5c1.84,1.23,3.43,2.29,6.33,2.1a6.73,6.73,0,0,0,3-1C38,104.85,38.18,104.7,38.41,104.56Z"/><path class="cls-2" d="M118.56,105.78c-.25-.15-.48-.31-.7-.47a9.82,9.82,0,0,0-2.27-1,46.05,46.05,0,0,1-11.27,11.27,9.82,9.82,0,0,0,1,2.27c.16.22.32.45.47.7a6.81,6.81,0,0,0,2.41,2.1c2.61,1.29,4.49.92,6.65.49A13.54,13.54,0,0,1,121,121a13.54,13.54,0,0,1,.18-6.13c.43-2.16.8-4-.49-6.65A6.72,6.72,0,0,0,118.56,105.78Z"/><path class="cls-3" d="M125.21,88.16a11,11,0,0,0-2.51-.06,45.17,45.17,0,0,1-6.12,14.74,10.31,10.31,0,0,0,1.79,1.72,8.37,8.37,0,0,1,.7.46,6.69,6.69,0,0,0,3,1c2.9.19,4.49-.87,6.33-2.1a13.6,13.6,0,0,1,5.6-2.5,13.59,13.59,0,0,1-2.19-5.73c-.43-2.17-.8-4-3-6a6.89,6.89,0,0,0-2.93-1.45C125.68,88.26,125.44,88.22,125.21,88.16Z"/><path class="cls-2" d="M134.4,73.94c-1.23-1.84-2.29-3.43-5.05-4.36a6.64,6.64,0,0,0-3.22-.22c-.25.06-.49.1-.73.14a10,10,0,0,0-2.36.91,44.58,44.58,0,0,1,0,16,9.94,9.94,0,0,0,2.3.9c.26,0,.54.09.81.16a6.8,6.8,0,0,0,3.2-.22c2.76-.93,3.82-2.52,5.05-4.36a13.72,13.72,0,0,1,4.21-4.46A13.7,13.7,0,0,1,134.4,73.94Z"/><path class="cls-3" d="M105,119.06c-.17-.23-.32-.46-.46-.69a10.31,10.31,0,0,0-1.72-1.79A45.17,45.17,0,0,1,88.1,122.7a10.56,10.56,0,0,0,.06,2.46c.06.26.12.53.16.81a6.73,6.73,0,0,0,1.43,2.88c1.91,2.19,3.79,2.56,6,3a13.59,13.59,0,0,1,5.73,2.19,13.6,13.6,0,0,1,2.5-5.6c1.23-1.84,2.29-3.43,2.1-6.33A6.78,6.78,0,0,0,105,119.06Z"/><path class="cls-2" d="M87.26,125.32a9.78,9.78,0,0,0-.89-2.28,44.58,44.58,0,0,1-16,0,10.53,10.53,0,0,0-.89,2.3c0,.26-.1.54-.17.82a6.65,6.65,0,0,0,.23,3.19c.93,2.76,2.52,3.82,4.36,5.05a13.7,13.7,0,0,1,4.45,4.21,13.72,13.72,0,0,1,4.46-4.21c1.84-1.23,3.43-2.29,4.36-5.05a6.81,6.81,0,0,0,.23-3.17C87.36,125.89,87.31,125.6,87.26,125.32Z"/><path class="cls-2" d="M51.47,117.86a10.46,10.46,0,0,0,1-2.27,45.92,45.92,0,0,1-11.28-11.27,10,10,0,0,0-2.27,1c-.22.16-.45.32-.7.47a6.81,6.81,0,0,0-2.1,2.41c-1.29,2.61-.92,4.48-.48,6.65a13.7,13.7,0,0,1,.17,6.13,13.54,13.54,0,0,1,6.13.18c2.17.43,4,.8,6.65-.49a6.84,6.84,0,0,0,2.42-2.1C51.16,118.31,51.31,118.08,51.47,117.86Z"/><path class="cls-3" d="M121.89,87.62a.11.11,0,0,1,0-.05,44.37,44.37,0,0,0,0-18.36.09.09,0,0,1,0,0,44.13,44.13,0,0,0-3-9.1L79.22,122.84a45,45,0,0,0,8.35-.94h.06A44.62,44.62,0,0,0,121.89,87.62Z"/><path class="cls-3" d="M53.94,116.58a10.36,10.36,0,0,0-1.71,1.79c-.14.23-.3.46-.47.69a6.73,6.73,0,0,0-1,3c-.19,2.9.87,4.49,2.1,6.33a13.73,13.73,0,0,1,2.51,5.6,13.54,13.54,0,0,1,5.73-2.19c2.16-.43,4-.8,6-3A6.64,6.64,0,0,0,68.46,126c.05-.28.1-.56.16-.82a10,10,0,0,0,.06-2.46A45.17,45.17,0,0,1,53.94,116.58Z"/><path class="cls-2" d="M30.63,87.43c.27-.07.55-.12.81-.16a9.75,9.75,0,0,0,2.3-.9,44.58,44.58,0,0,1,0-16,10,10,0,0,0-2.36-.91c-.24,0-.48-.08-.72-.14a6.68,6.68,0,0,0-3.23.22c-2.76.93-3.82,2.52-5.05,4.36a13.49,13.49,0,0,1-4.21,4.45,13.62,13.62,0,0,1,4.21,4.46c1.23,1.84,2.29,3.43,5.05,4.36A6.8,6.8,0,0,0,30.63,87.43Z"/><path class="cls-3" d="M37.89,60.07a43.82,43.82,0,0,0-3,9.09l0,0a44.37,44.37,0,0,0,0,18.36s0,0,0,.06a44.6,44.6,0,0,0,34.25,34.26h.06a45,45,0,0,0,8.35.94Z"/><path class="cls-4" d="M70.18,34.24s-2.21-3.47-1-7c1.85-5.49,6.37-4.72,9.24-10,2.88,5.29,7.39,4.52,9.24,10,1.18,3.48-1,7-1,7"/><path class="cls-4" d="M53.91,40.74s-3.37-2.35-3.61-6c-.39-5.78,4.07-6.79,4.7-12.78,4.69,3.79,8.56,1.35,12.37,5.71,2.43,2.77,1.71,6.82,1.71,6.82"/><path class="cls-4" d="M41.36,53s-4-.89-5.64-4.19c-2.57-5.19,1.17-7.84-.54-13.61,5.77,1.71,8.42-2,13.61.54,3.3,1.63,4.19,5.64,4.19,5.64"/><path class="cls-4" d="M34.46,69.08s-4.05.72-6.82-1.71c-4.36-3.81-1.92-7.68-5.71-12.37,6-.63,7-5.09,12.78-4.7,3.68.24,6,3.61,6,3.61"/><path class="cls-4" d="M34.24,86.61s-3.47,2.2-7,1c-5.49-1.85-4.72-6.36-10-9.24,5.29-2.87,4.52-7.39,10-9.24,3.48-1.18,7,1,7,1"/><path class="cls-4" d="M40.74,102.88s-2.35,3.36-6,3.61c-5.78.39-6.79-4.08-12.78-4.71,3.79-4.68,1.35-8.56,5.71-12.37,2.77-2.42,6.82-1.71,6.82-1.71"/><path class="cls-4" d="M53,115.42s-.89,4-4.19,5.64c-5.19,2.57-7.84-1.17-13.61.54,1.71-5.77-2-8.41.54-13.61,1.63-3.3,5.64-4.19,5.64-4.19"/><path class="cls-4" d="M69.08,122.33s.72,4-1.71,6.81c-3.81,4.37-7.68,1.92-12.37,5.71-.63-6-5.09-7-4.7-12.78.24-3.67,3.61-6,3.61-6"/><path class="cls-4" d="M86.61,122.54s2.2,3.47,1,7c-1.85,5.49-6.36,4.71-9.24,10-2.87-5.29-7.39-4.51-9.24-10-1.18-3.49,1-7,1-7"/><path class="cls-4" d="M102.88,116s3.36,2.36,3.61,6c.39,5.78-4.08,6.79-4.71,12.78-4.68-3.79-8.56-1.34-12.37-5.71-2.42-2.77-1.71-6.81-1.71-6.81"/><path class="cls-4" d="M115.42,103.8s4,.89,5.64,4.19c2.57,5.2-1.17,7.84.54,13.61-5.77-1.71-8.41,2-13.61-.54-3.3-1.63-4.19-5.64-4.19-5.64"/><path class="cls-4" d="M122.33,87.7s4-.71,6.81,1.71c4.37,3.81,1.92,7.69,5.71,12.37-6,.63-7,5.1-12.78,4.71-3.67-.25-6-3.61-6-3.61"/><path class="cls-4" d="M122.54,70.18s3.47-2.21,7-1c5.49,1.85,4.71,6.37,10,9.24-5.29,2.88-4.51,7.39-10,9.24-3.49,1.18-7-1-7-1"/><path class="cls-4" d="M116,53.91s2.36-3.37,6-3.61c5.78-.39,6.79,4.07,12.78,4.7-3.79,4.69-1.34,8.56-5.71,12.37-2.77,2.43-6.81,1.71-6.81,1.71"/><path class="cls-4" d="M103.8,41.36s.89-4,4.19-5.64c5.2-2.57,7.84,1.17,13.61-.54-1.71,5.77,2,8.42-.54,13.61-1.63,3.3-5.64,4.19-5.64,4.19"/><path class="cls-4" d="M87.7,34.46s-.71-4.05,1.71-6.82c3.81-4.36,7.69-1.92,12.37-5.71.63,6,5.1,7,4.71,12.78-.25,3.68-3.61,6-3.61,6"/><circle class="cls-4" cx="78.39" cy="78.39" r="44.92"/><circle class="cls-4" cx="78.39" cy="81.62" r="22.05" transform="translate(-26.43 38.97) rotate(-24.02)"/><polygon class="cls-4" points="37.82 59.1 78.39 123.31 118.97 59.1 37.82 59.1"/></g></g></svg>