<svg xmlns="http://www.w3.org/2000/svg" viewBox="0 0 147.31 91.81"><defs><style>.cls-1,.cls-4{fill:none;stroke-linecap:round;stroke-linejoin:round;stroke-width:4px;}.cls-1{stroke:#f561d0;}.cls-2{fill:#f561d0;}.cls-3{fill:#ff76e2;}.cls-4{stroke:#000;}</style></defs><title>neznama</title><g id="Layer_2" data-name="Layer 2"><g id="OBJECTS"><path class="cls-1" d="M145.31,18.16A71.66,71.66,0,1,1,3.83,2,71.68,71.68,0,0,0,73.65,57.49,71.66,71.66,0,0,0,143.47,2,71.67,71.67,0,0,1,145.31,18.16Z"/><path class="cls-2" d="M73.65,80.6A56.92,56.92,0,0,1,17.83,12.7,58,58,0,0,0,37.45,42.85,57.92,57.92,0,0,0,73.65,55.6a57.93,57.93,0,0,0,36.21-12.75A58,58,0,0,0,129.47,12.7,56.92,56.92,0,0,1,73.65,80.6Z"/><path class="cls-3" d="M130,16A56.89,56.89,0,0,1,17.3,16c.13-1.09.31-2.18.53-3.27A58,58,0,0,0,37.45,42.85,57.92,57.92,0,0,0,73.65,55.6a57.93,57.93,0,0,0,36.21-12.75A58,58,0,0,0,129.47,12.7Q129.8,14.34,130,16Z"/><path class="cls-4" d="M131,23.71A57.32,57.32,0,1,1,17.8,10.78,57.33,57.33,0,0,0,73.65,55.17a57.34,57.34,0,0,0,55.86-44.39A57.39,57.39,0,0,1,131,23.71Z"/></g></g></svg>