<svg xmlns="http://www.w3.org/2000/svg" viewBox="0 0 199 199"><defs><style>.cls-1{fill:none;}</style></defs><title>eco</title><g id="Layer_2" data-name="Layer 2"><g id="eco"><path class="cls-1" d="M0,0H199V199H0Z"/><g id="Shopicon"><path d="M66.39,138.33l13.16-13.15a28.85,28.85,0,0,0,34.11-5c20.43-20.42,17.51-58.35,17.51-58.35s-1.87-.14-5-.14c-11,0-37.45,1.76-53.34,17.65a28.89,28.89,0,0,0-5,34.12L54.66,126.61Z"/><path d="M56.78,72.77,50.34,57.48,38.8,62.35A66.27,66.27,0,0,1,160.33,99h16.59A82.83,82.83,0,0,0,23.46,55.64l-4.09-12.1L3.66,48.85l13.7,40.52Z"/><path d="M131.22,125.23l6.44,15.29,11.54-4.87A66.27,66.27,0,0,1,27.67,99H11.08a82.83,82.83,0,0,0,153.46,43.36l4.09,12.1,15.71-5.31-13.7-40.52Z"/></g></g></g></svg>