<svg xmlns="http://www.w3.org/2000/svg" viewBox="0 0 186.78 209"><defs><style>.cls-1{fill:none;stroke:#000;stroke-linecap:round;stroke-width:9px;}</style></defs><title>soy-bean</title><g id="Layer_2" data-name="Layer 2"><g id="soy-bean"><g id="SVGRepo_iconCarrier" data-name="SVGRepo iconCarrier"><g id="Soy-Bean-2" data-name="Soy-Bean"><path id="Shape" class="cls-1" d="M182.28,73.36a37.44,37.44,0,0,1-16.67,31.14,37.44,37.44,0,0,0-16.67,31.14v2.19a28.47,28.47,0,0,1-21.55,27.62l-3.46.86a51.8,51.8,0,0,0-30.54,21.52A37.41,37.41,0,0,1,62.25,204.5H15.61a37.89,37.89,0,0,0,11.11-26.82V169a37.44,37.44,0,0,1,16.67-31.15,51.8,51.8,0,0,0,21.52-30.54l2.21-8.84A21.35,21.35,0,0,1,87.83,82.28,27,27,0,0,0,112,67.37l4.83-9.66a36,36,0,0,1,32.16-19.88h6.51a37.94,37.94,0,0,0,26.83-11.11ZM53.83,177.4A16.67,16.67,0,1,1,77.4,153.83m16.94-17a22.22,22.22,0,1,1,31.43-31.43m11.39-16.94a16.67,16.67,0,0,1,23.57-23.57M21.17,93.39A16.67,16.67,0,1,0,4.5,76.72,16.66,16.66,0,0,0,21.17,93.39Zm0-55.56A16.67,16.67,0,1,0,4.5,21.17,16.66,16.66,0,0,0,21.17,37.83ZM76.72,48.94A16.67,16.67,0,1,0,60.06,32.28,16.66,16.66,0,0,0,76.72,48.94Z"/></g></g></g></g></svg>