<svg xmlns="http://www.w3.org/2000/svg" viewBox="0 0 232 232"><defs><style>.cls-1{fill:none;}</style></defs><title>hourglass</title><g id="Layer_2" data-name="Layer 2"><g id="hourglass"><path d="M78.49,62.41c21.9,6.4,49.39-2.85,79-18v.76c0,12.57-15.87,28-31.4,41.45a37.43,37.43,0,0,0-7.27,8.69v65c12.77,3.6,27.22,20.2,37,35.33-.26.86-.42,1.74-.75,2.57H72.92c-.33-.84-.55-1.65-.8-2.46,9.77-15.18,24.26-31.83,37.06-35.44v-65a37,37,0,0,0-7.06-8.51A172.88,172.88,0,0,1,78.5,62.41ZM166.41,14.5H186.5v9.67H171.85a54.21,54.21,0,0,1,5,22.41c0,20.79-14.29,41.51-34.27,58.89a15,15,0,0,0-6,10.53,15,15,0,0,0,6,10.53c20,17.38,34.27,38.09,34.27,58.88a54.1,54.1,0,0,1-5,22.42H186.5v9.67H41.5v-9.67H56a54.77,54.77,0,0,1-4.83-22.41c0-20.79,14.29-41.51,34.27-58.89a15,15,0,0,0,6-10.53,15,15,0,0,0-6-10.53c-20-17.38-34.27-38.09-34.27-58.88A54.69,54.69,0,0,1,56,24.17H41.5V14.5Zm-5.27,9.67H66.87a45.25,45.25,0,0,0-6,22.42c0,15.91,11,34.22,30.94,51.58A23.53,23.53,0,0,1,101.1,116a23.5,23.5,0,0,1-9.32,17.82c-20,17.37-30.94,35.68-30.94,51.6a45.22,45.22,0,0,0,6,22.41h94.27a44.81,44.81,0,0,0,6-22.42c0-15.91-11-34.22-30.94-51.58A23.53,23.53,0,0,1,126.9,116a23.5,23.5,0,0,1,9.32-17.82c20-17.37,30.94-35.69,30.94-51.6a45,45,0,0,0-6-22.41Z"/><path class="cls-1" d="M0,0H232V232H0Z"/></g></g></svg>